<?xml version="1.0" encoding="utf-8"?>
<!-- Generator: Adobe Illustrator 15.1.0, SVG Export Plug-In . SVG Version: 6.00 Build 0)  -->
<!DOCTYPE svg PUBLIC "-//W3C//DTD SVG 1.1//EN" "http://www.w3.org/Graphics/SVG/1.1/DTD/svg11.dtd">
<svg version="1.1" id="Layer_1" xmlns="http://www.w3.org/2000/svg" xmlns:xlink="http://www.w3.org/1999/xlink" x="0px" y="0px"
	 width="75px" height="75px" viewBox="0 0 75 75" enable-background="new 0 0 75 75" xml:space="preserve">
<path fill-rule="evenodd" clip-rule="evenodd" fill="#E8BA40" d="M39.228,69.044c-0.298,0.397-0.408,0.986-1.047,1.045
	c-0.039,0.252,0.224,0.359-0.161,0.323c0.423,0.342-0.099,0.549-0.159,1.207c-0.123,0.224-0.022-0.451-0.242-0.402
	c-0.046,0.062-0.34,0.626,0.081,0.724c-0.105,0.137-0.383,0.099-0.404,0.323c-0.23-0.112,0.025-0.397,0.084-0.484
	c-0.167-0.154-0.332,0.144-0.563,0.161c0.128,0.137,0.157,0.377,0.32,0.481c-0.092,0.241-0.165-0.044-0.485,0.162
	c-0.338,0.013,0.004-0.124,0-0.242c-0.208-0.217-0.239,0.1-0.48,0.08c-0.29-0.308-0.188-0.489,0-0.803
	c-0.181-0.41-0.827-0.354-0.965-0.806c0.173,0.044,0.518,0.196,0.562-0.079c0.144,0.072,0.133,0.295,0.322,0.321
	c0.228-0.108,0.004-0.422-0.16-0.402c0.175-0.091,0.258-0.277,0.322-0.481c-0.194-0.25-0.143-0.322-0.322-0.485
	c-0.167,0.21-0.234,0.519-0.404,0.727c-0.01-0.511-0.527-0.582-0.723-0.162c-0.135-0.837-0.49-0.772-0.081-1.528
	c-0.01-0.097-0.146-0.069-0.239-0.083c-0.079,0.299-0.273,0.482-0.242,0.887c-0.104,0.148-0.081-0.505-0.244-0.564
	c-0.248-0.06-0.154,0.222-0.401,0.163c0.106-0.192,0.224-0.368,0.16-0.727c0.256,0.04,0.328-0.1,0.404-0.239
	c-0.216-0.188-0.412-0.396-0.564-0.645c-0.553-0.1-0.323,0.552-0.402,0.723c-0.174,0.014-0.037-0.286-0.081-0.401
	c-0.171-0.037-0.155,0.115-0.159,0.242c-0.196-0.187-0.059-0.889-0.644-0.887c0.268-0.368-0.41-0.364-0.324-0.804
	c-0.991-0.701-1.431-1.948-2.495-2.575c-0.116-0.769-0.997-0.772-1.127-1.529c-0.105,0-0.214,0-0.321,0
	c-1.984-2.628-4.876-4.351-6.92-6.92c-1.063-0.405-1.623-1.581-2.494-1.932c0-0.08,0-0.161,0-0.24
	c-0.024-0.111-0.201-0.068-0.323-0.082c-0.657-1.088-1.968-1.518-2.896-2.334c0.191-0.46,0.345-0.521,0.161-1.044
	c1.314-2.856,1.854-5.793,2.335-9.255c0.046-0.258-0.024-0.405-0.164-0.482c0.277-0.908,0.361-1.383,0.164-1.932
	c0.523-2.237,0.33-5.88,0.4-9.254c0.32,0.297,0.653-0.138,0.727-0.402c-0.112-0.301-0.604-0.042-0.727-0.162
	c0-1.529,0-3.058,0-4.586c-0.267,0-0.537,0-0.803,0c-0.204-0.227-0.26-0.601-0.804-0.482c-0.143,0.021-0.185,0.138-0.161,0.321
	c-2.892-0.273-5.331-1-7.486-2.012c-0.042-0.119-0.119-0.202-0.162-0.322C6.955,20.953,6,19.763,4.785,18.83
	c-0.022-0.248,0.187-0.385,0-0.562c-0.476,0.537-1.036-0.445-1.446-0.725c-0.06-0.22,0.159-0.161,0.161-0.321
	c-0.982-0.548-1.463-1.597-1.77-2.817c0.18-0.044,0.114,0.153,0.241,0.161c0.083-0.265,0.046-0.255,0.242-0.483
	c-0.815,0.132-0.711-0.786-0.724-2.012c0.107,0,0.212,0,0.32,0c0.062-0.275-0.293-0.132-0.32-0.32
	c0.258-1.428,0.773-2.274,1.126-3.705c0.233-0.06,0.209-0.38,0.562-0.32c0.092-0.625,0.825-1.182,1.368-1.61
	c0.219-0.057-0.057,0.38,0.164,0.322c0.329-0.098,0.043-0.31,0-0.483C6.056,5.473,7.33,4.697,8.65,4.828
	c1.058-0.536,1.719,0.492,2.979,0.321c-0.137,0.161,0.004,0.104,0,0.323c0.877-0.124,1.374,1.169,2.171,1.126
	c0.555,1.021,1.892,2.018,1.609,3.138c0.242,0.081,0.143-0.178,0.161-0.321c0.295,0.275-0.182,0.456-0.08,0.804
	c0.074,0.271,0.181,0.011,0.321,0.163c0.135,2.463-0.913,5.253-2.737,6.677c0.083,0.106,0.081,0.298,0.16,0.403
	c0.861-0.909,2.532,0.384,3.384-0.16c0.221,0.459,0.256,0.138,0.642,0c0.532-0.191,1.772-0.132,1.772-0.805
	c-0.469-0.153,0.024-0.771-0.242-1.128c0.078-0.246,0.27,0.037,0.32,0.083c0.083-0.053,0.084-0.186,0.244-0.163
	c0.008-0.25-0.256-0.228-0.161-0.562c-0.022-0.073-0.301-0.271-0.322-0.081c0.001-0.211,0.01-0.875,0.162-1.047
	c-0.469-0.49-0.03-1.664-0.323-2.414c0.077-0.266,0.159,0.089,0.24,0.081c0.045-0.135,0.236-0.601-0.16-0.564
	c0.338-0.251,0.188-0.991,0.402-1.366c-0.148-0.203-0.389-0.312-0.563-0.485c0.291-0.84-0.14-1.359,0-2.735
	c0.105,0.103,0.158,0.242,0.321,0.082c-0.073-0.172,0-0.48-0.321-0.403c0.118-0.421,0.118-0.302,0-0.725
	c0.194-0.032,0.174,0.146,0.403,0.08c0-0.268,0-0.537,0-0.805c-0.271-0.082-0.126,0.251-0.162,0.403
	c-0.881-0.672,0.616-2.166-0.242-2.573c-0.069-0.387,0.161-1.075-0.162-1.208c0.026-0.108,0.202-0.067,0.323-0.08
	c0.082-0.377-0.281-0.309-0.161-0.724c2.874-0.027,5.248-0.026,7.482-0.081c0.453,1.168-0.004,2.385,0.323,3.381
	c-0.106-0.054-0.15-0.174-0.16-0.322c-0.159,0-0.102,0.219-0.322,0.159c0.052,0.359,0.295,0.349,0.482,0.403
	c-0.12,2.132,0.25,6.625,0.403,9.254c0.292-0.084,0.526-0.223,0.644-0.482c0.148,0.009,0.049,0.27,0.161,0.32
	c0.316-0.198-0.007-0.267,0-0.563c0.5-0.463,1.135-0.793,1.287-1.608c0.132-0.023,0.138,0.076,0.242,0.079
	c0.123-0.696,0.864-1.062,0.804-1.688c0.089,0.019,0.056,0.16,0.161,0.16c0.127-0.035,0.07-0.253,0.323-0.16
	c-0.249-0.364-0.041-0.438-0.241-0.644c0.078-0.225,0.215,0.116,0.32-0.08c-0.242-0.353,0.021-0.401,0-0.967
	c0.192,0.025,0.153,0.28,0.407,0.242c-0.033-0.239-0.131-0.408-0.244-0.563c0.493-1.808,1.611-2.7,1.287-5.632
	c-0.187-0.057-0.117-0.367-0.322-0.404C31.9,0.702,32.096,0.582,32.148,0c2.655,0.291,5.088,0.006,7.482,0.161
	c0.04,2.06,0.186,3.15,0.161,5.15c-0.335-0.288-0.586,0.005-0.885-0.081c0.069,0.335,0.335,0.469,0.483,0.724
	c0.208-0.007,0.087-0.344,0.402-0.243c-0.216,1.644,0.37,3.704-0.32,4.83c0.011,0.151,0.265,0.055,0.24,0.24
	c-0.049,1.893,0.169,5.299,0.322,7.004c0.126,1.399-0.124,2.822,0,4.103c0.142,1.439,0.248,2.749,0.321,4.105
	c-0.129-0.166-0.401-0.188-0.724-0.162c-0.052,0.572,0.329,0.301,0.724,0.322c-0.02,0.273,0.064,0.653-0.08,0.802
	c0.999-0.002,1.878-0.944,2.577-1.526c0.852-0.71,1.968-1.176,2.896-1.852c0.129-0.021,0.14,0.078,0.242,0.082
	c0.114-0.098,0.122-0.308,0.24-0.402c0.12,0.018,0.03,0.241,0.162,0.241c0.175,0.012,0.037-0.284,0.084-0.401
	c0.221-0.033,0.073,0.299,0.239,0.321c0.086-2.23-0.326-4.664-0.323-7.08c-0.07-0.26,0.265-0.112,0.242-0.323
	c-0.012-0.095-0.145-0.067-0.242-0.081c-0.084-2.509,0.043-3.611-0.322-5.873c0.072-0.556,0.21-1.064,0-1.852
	c0.375-1.907-0.25-2.177,0.322-4.023c0.025-0.21-0.311-0.064-0.24-0.322c0.462-0.905,0.18-2.558,0.324-3.782
	c2.211,0.059,5.06,0.059,7.398,0c0.037,0.262,0.226,0.366,0.244,0.644c0.229,0.009,0.526-0.044,0.645,0.083
	c-0.019,0.249-0.404,0.134-0.645,0.159c-0.083,0.431,0.458,0.24,0.48,0.562c-0.18-0.022-0.301,0.021-0.321,0.161
	c-0.155-0.031-0.004-0.369-0.32-0.241c-0.066,0.143-0.121,0.453,0.081,0.564c-0.168,0.792,0.078,1.63,0.24,2.332
	c-0.484,0.86,0.131,2.693-0.24,3.301c0.499,1.042-0.095,2.214,0.402,3.7c-0.074,0.144-0.182,0.249-0.322,0.323
	c0.312,1.055,0.155,2.256,0.322,3.058c0.085,0.394-0.17,0.739-0.162,0.965c0.005,0.105,0.214,0.153,0.244,0.242
	c0.201,0.611-0.101,1.167-0.244,1.772c0.458,0.922,0.343,2.225,0.321,3.459c0.011,0.153,0.271,0.056,0.242,0.241
	c0.421-0.087,0.811-0.246,1.37,0c1.86-0.075,4.556,0.531,6.198,0.966c-0.02,0.286,0.375,0.159,0.322,0.482
	c0.136,0.03,0.148-0.062,0.16-0.16c0.375,0.408,0.986,0.289,1.449,0.403c0.364,0.089,0.525,0.339,0.883,0.481
	c0.546,0.22,1.235,0.148,1.287,0.885c1.072-0.062,1.495,1.18,2.415,1.531c0,0.133,0,0.268,0,0.401
	c0.094,0.093,0.284,0.091,0.485,0.081c-0.008,0.115-0.017,0.227,0.08,0.241c0.085,0.303-0.302,0.128-0.245,0.405
	c-0.021,0.21,0.115,0.262,0.324,0.24c-0.138,0.482,0.291,1.168-0.079,1.69c0.127,0.285,0.341,0.015,0.641,0.159
	c-0.007,0.2-0.009,0.388,0.084,0.484c0.701-0.402-0.322-0.892-0.243-1.449c0.338,0.205,0.386-0.147,0.726-0.159
	c0.299,0.942,1.215,2.003,0.886,3.055c-0.189,0.002-0.238-0.137-0.484-0.079c-0.013,0.447,0.417,0.963,0.883,0.884
	c-0.026,0.872,0.441,1.699-0.32,2.174c0.391,0.677,0.175,2.777-0.883,2.011c-0.281,0.364,0.25,0.605,0.078,1.126
	c-1.208,0.808-1.831,2.083-3.46,2.253c-0.784,0.081-1.892-0.036-2.818-0.159c-0.208-0.03-0.765-0.182-0.803-0.322
	c-0.943,0.04-1.541-0.293-2.17-0.322c0.246-0.246-0.178-0.232-0.244-0.404c-0.267,0.027,0.244,0.381-0.16,0.324
	c-0.118-0.189-0.201-0.184,0-0.324c-0.994-1.29-2.893-2.52-2.494-4.667c-0.024-0.188-0.219-0.188-0.244,0
	c-0.417-3.17,1.113-4.625,2.417-6.276c-0.417-0.133-1.519-0.468-2.011-0.564c-0.16-0.031-0.196,0.162-0.242,0.158
	c-0.905-0.005-1.642-0.405-2.416-0.158c-0.132,0.042-0.259,0.271-0.399,0.324c-0.278,0.097-0.869,0.003-0.97,0.4
	c-0.031,0.127,0.366,0.569,0.16,0.724c0.077,0.142,0.151,0.281,0.404,0.243c-0.131,0.333-0.316,0.481-0.08,0.804
	c-0.413-0.033-0.159,0.757,0.241,0.645c0,0.348,0,0.696,0,1.043c-0.063-0.041-0.128-0.083-0.241-0.079
	c0.352,0.468,0.165,1.123,0.241,1.771c0.138,1.145,0.798,2.477,0.483,4.022c0.012,0.094,0.146,0.069,0.241,0.082
	c-0.099,0.482,0.176,0.838,0.162,1.124c-0.003,0.086-0.152,0.218-0.162,0.163c0.031,0.144,0.281,0.274,0.321,0.403
	c0.065,0.194-0.028,0.486,0,0.724c0.152,1.194,0.506,2.398,0.484,3.703c0.411,0.905,0.736,2.237,0.644,3.058
	c0.186,0.194,0.548,0.78,0.16,1.046c0.011,0.197,0.266,0.017,0.242-0.08c0.224,1.814,1.138,2.936,1.046,5.068
	c-0.451,0.597-1.383,1.136-2.255,1.045c-0.432,0.66-1.084,0.718-1.528,1.127c-0.259-0.264-0.419,0.113-0.481-0.159
	c-0.215,0.029-0.578,0.326-0.401,0.483c-1.103,0.562-1.599,1.725-2.736,2.252c-0.028,0.188-0.101,0.332-0.161,0.482
	c-0.088-0.02-0.054-0.16-0.163-0.16c-0.093,0.121-0.23,0.197-0.239,0.401c-0.324-0.058-0.87,0.295-0.967,0.724
	c-0.265,0.031-0.354,0.236-0.562,0.321c-1.197,1.518-2.643,2.773-4.024,4.106c-0.058,0.053-0.097,0.115-0.08,0.242
	c-0.773,0.22-0.909,1.076-1.691,1.287c-0.499,0.814-1.514,1.116-2.012,1.932c-0.106,0-0.213,0-0.321,0
	c0.082,0.073-0.111,0.428-0.32,0.643c-0.352,0.36-0.695,0.737-0.968,1.126c-0.209,0.302-0.386,0.262-0.644,0.401
	c0.01,0.2,0.153,0.249,0,0.402c-0.188-0.307-0.673,0.309-0.724-0.322c0.295,0.167,0.419-0.046,0.483-0.319
	c-0.435-0.19-0.901,0.127-1.125,0.24c-0.205-0.058,0.196-0.46-0.159-0.483c-0.423-0.126-0.054,0.54-0.405,0.483
	c0.081,0.349,0.42,0.439,0.644,0.644c-0.052,0.182-0.21,0.674,0.082,0.724c0.319,0.054,0.232-0.306,0.24-0.562
	C38.785,69.447,39.044,69.216,39.228,69.044z M19.997,0.564c0.08,0,0.161,0,0.242,0c0.022-0.185-0.022-0.304-0.163-0.321
	C20.053,0.349,19.963,0.396,19.997,0.564z M53.231,0.402c-0.023,0.561,0.976,0.059,0.402-0.16
	C53.623,0.417,53.43,0.414,53.231,0.402z M19.835,1.128c0.149-0.231,0.145-0.86-0.241-0.807C19.62,0.644,19.65,0.963,19.835,1.128z
	 M21.043,1.046c0.227-0.015,0.342-0.141,0.321-0.402c-0.078,0-0.161,0-0.241,0C21.057,0.737,21.015,0.86,21.043,1.046z M24.34,1.128
	c0.109,0.24,0.141,0.557,0.485,0.561c0.106-0.342-0.091-0.6,0.322-0.319c0-0.135,0-0.271,0-0.404
	C24.688,0.839,24.677,0.989,24.34,1.128z M36.331,1.448c0.108,0,0.218,0,0.321,0c0-0.212,0.046-0.473-0.159-0.482
	C36.427,1.116,36.359,1.26,36.331,1.448z M50.333,1.85c0.192,0.026,0.151,0.282,0.402,0.242c0.097-0.09,0.146-0.23,0.402-0.161
	c-0.006-0.317-0.093-0.55-0.322-0.644C50.727,1.546,50.515,1.682,50.333,1.85z M36.171,1.931c0.06-0.301-0.093-0.392-0.324-0.403
	C35.83,1.791,35.943,1.916,36.171,1.931z M19.835,3.218c0.128-0.006,0.065-0.205,0.241-0.159c-0.292-0.406-0.148-1.247-0.643-1.449
	C19.66,2.393,19.188,2.884,19.835,3.218z M34.722,2.174c0.03-0.302-0.062-0.473-0.323-0.485C34.367,1.991,34.466,2.163,34.722,2.174
	z M34.803,2.174c0.079,0,0.16,0,0.242,0c-0.02-0.144,0.08-0.403-0.163-0.324C34.857,1.959,34.769,2.003,34.803,2.174z M25.227,2.816
	c0.058-0.29,0.308-0.389,0.243-0.804c-0.082,0-0.162,0-0.243,0C25.059,2.354,24.73,2.568,25.227,2.816z M21.203,2.816
	c0.252,0.135,0.331-0.299,0.403-0.079c0.06,0.327-0.258,0.276-0.161,0.642c0.254,0.041,0.181-0.245,0.482-0.161
	c-0.214-0.349,0.161-0.507,0-0.805c-0.16-0.024-0.16,0.11-0.241,0.163c0.019-0.288-0.116-0.422-0.4-0.402
	C21.345,2.476,21.185,2.557,21.203,2.816z M51.862,2.655c0.208-0.047,0.292,0.033,0.241,0.242c0.107,0,0.218,0,0.325,0
	c0-0.107,0-0.214,0-0.321c-0.503,0.033,0.075-0.171-0.164-0.324C51.947,2.204,51.908,2.434,51.862,2.655z M25.71,2.816
	c-0.036-0.152,0.11-0.484-0.163-0.403C25.495,2.609,25.388,2.828,25.71,2.816z M24.099,4.023c0.293-0.083,0.143-0.607,0.485-0.644
	c-0.145-0.229-0.141-0.611-0.322-0.803C23.417,2.538,23.955,3.65,24.099,4.023z M34.641,2.897c0.292,0.059,0.224,0.081,0.565,0.162
	c0-0.162,0-0.321,0-0.482C34.893,2.559,34.7,2.66,34.641,2.897z M35.689,2.897c0.078,0,0.158,0,0.241,0
	c0.023-0.21-0.029-0.347-0.241-0.321C35.689,2.683,35.689,2.79,35.689,2.897z M38.02,3.782c0.161,0,0.324,0,0.485,0
	c-0.087-0.301,0.2-0.23,0.161-0.483c-0.303,0.154-0.341,0.154-0.646,0C38.02,3.461,38.02,3.621,38.02,3.782z M48.405,3.863
	c-0.004-0.212,0.042-0.475-0.166-0.484C48.114,3.552,47.949,3.927,48.405,3.863z M50.414,3.782c0-0.107,0-0.214,0-0.321
	C50.104,3.396,50.104,3.845,50.414,3.782z M35.689,4.104c0.177-0.034,0.076-0.442-0.081-0.403
	C35.546,3.757,35.398,4.182,35.689,4.104z M19.756,4.344c0.031-0.3-0.066-0.469-0.323-0.481C19.448,4.116,19.49,4.343,19.756,4.344z
	 M39.147,4.023c-0.076,0.296,0.397,0.321,0.406,0.082C39.383,4.058,39.291,3.875,39.147,4.023z M21.606,4.667
	c0.107,0,0.215,0,0.321,0c-0.134-0.189,0.043-0.687-0.321-0.644C21.606,4.237,21.606,4.452,21.606,4.667z M21.286,5.069
	c0.029,0.299-0.327,0.211-0.243,0.565c0.346,0.066,0.339,0.066,0.643,0.24c0.35-0.233,0.302-0.706,0.162-1.047
	c-0.253-0.093-0.195,0.126-0.321,0.163c-0.021-0.064-0.071-0.095-0.164-0.082c0.002-0.16,0.219-0.104,0.164-0.322
	c-0.386,0.134-0.3-0.038-0.646-0.081C20.806,4.906,21.121,4.912,21.286,5.069z M24.263,5.149c-0.06-0.246,0.082-0.292,0.078-0.482
	c-0.091-0.065-0.214-0.105-0.402-0.08C23.856,4.967,24.076,5.039,24.263,5.149z M22.734,5.23c0.079,0,0.161,0,0.241,0
	c-0.021-0.143,0.078-0.402-0.163-0.321C22.787,5.017,22.699,5.062,22.734,5.23z M37.457,5.23c0.013,0.258,0.186,0.354,0.485,0.323
	c0.072-0.198,0.239-0.296,0.163-0.644C37.611,4.783,37.849,5.477,37.457,5.23z M25.79,5.553c0.117-0.021,0.186-0.663-0.08-0.562
	C25.708,5.123,25.45,5.577,25.79,5.553z M35.689,5.392c0.078,0,0.158,0,0.241,0c0.023-0.184-0.021-0.304-0.163-0.323
	C35.745,5.178,35.657,5.222,35.689,5.392z M36.732,5.311c0,0.135,0,0.268,0,0.401c0.287-0.157,0.159-0.104,0.486,0
	c0.218-0.217-0.209-0.199-0.162-0.481c0.097-0.008,0.19-0.024,0.162-0.161c-0.082,0-0.162,0-0.242,0
	C36.991,5.246,36.911,5.326,36.732,5.311z M19.032,6.035c0.397-0.056,0.42-0.49,0.48-0.886c-0.079,0-0.159,0-0.24,0
	C19.354,5.685,18.803,5.556,19.032,6.035z M8.249,5.712C8.357,5.61,8.371,5.318,8.168,5.311C8.058,5.415,8.042,5.706,8.249,5.712z
	 M47.838,5.875c0.2,0.173,0.596,0.061,0.567-0.24c-0.294,0.076-0.071-0.364-0.324-0.324C48.034,5.532,47.881,5.647,47.838,5.875z
	 M20.158,5.794c0.22,0.248,0.441,0.025,0.805,0.161c0.01-0.198,0.01-0.388-0.081-0.482C20.465,5.404,20.242,5.53,20.158,5.794z
	 M34.561,6.116c0.229-0.093,0.317-0.327,0.322-0.643C34.548,5.447,34.47,5.963,34.561,6.116z M11.305,6.276
	c0.441,0.094,0.392-0.306,0.644-0.401c-0.212-0.028-0.281-0.201-0.483-0.24C11.327,5.763,11.266,5.97,11.305,6.276z M52.908,5.955
	c0-0.107,0-0.214,0-0.32c-0.08,0-0.159,0-0.239,0C52.645,5.843,52.64,6.035,52.908,5.955z M8.409,6.116
	C8.434,6.006,8.522,5.963,8.49,5.794c-0.081,0-0.161,0-0.241,0C8.226,5.977,8.266,6.097,8.409,6.116z M36.01,6.438
	c0.247,0.124,0.247-0.525,0-0.402C36.01,6.17,36.01,6.303,36.01,6.438z M38.906,6.438c0.292,0.014,0.292-0.415,0-0.402
	C38.906,6.17,38.906,6.303,38.906,6.438z M50.253,6.518c0.009-0.126,0.207-0.062,0.161-0.242c-0.157-0.084-0.321-0.16-0.484-0.241
	C49.898,6.336,49.996,6.506,50.253,6.518z M18.871,6.518c0.291,0.084,0.367,0.385,0.805,0.322c0.092-0.094,0.092-0.284,0.081-0.482
	C19.258,6.356,19.104,6.073,18.871,6.518z M19.997,6.84c0.207-0.01,0.283-0.147,0.402-0.241c-0.19-0.025-0.151-0.28-0.402-0.241
	C19.973,6.545,19.84,6.69,19.997,6.84z M52.908,6.358c-0.132,0-0.268,0-0.4,0C52.428,6.681,52.989,6.681,52.908,6.358z M7.362,6.84
	c0.131,0.015,0.162-0.526-0.081-0.402C7.222,6.492,7.071,6.917,7.362,6.84z M35.285,6.84c0.211,0.025,0.265-0.111,0.241-0.322
	c-0.078,0-0.159,0-0.241,0C35.285,6.625,35.285,6.733,35.285,6.84z M11.225,7.001c0-0.108,0-0.215,0-0.322c-0.081,0-0.161,0-0.241,0
	C10.96,6.888,10.957,7.083,11.225,7.001z M20.641,7.161c-0.049-0.165,0.129-0.557-0.163-0.482
	C20.354,6.803,20.335,7.232,20.641,7.161z M20.882,6.84c-0.112,0.326,0.175,0.254,0.161,0.483c0.452-0.059,0.924-0.093,0.884-0.644
	C21.595,6.748,21.165,6.72,20.882,6.84z M6.075,7.886c0.307,0.039,0.258-0.279,0.643-0.16C6.708,7.2,6.626,7.101,6.878,6.84
	C6.512,6.568,6.333,7.09,6.075,6.76C6.075,7.136,6.075,7.51,6.075,7.886z M18.709,7.161c0.219,0.071,0.519-0.401,0.161-0.401
	C18.929,7.007,18.592,6.857,18.709,7.161z M19.032,7.646c-0.009-0.127,0.009-0.28-0.162-0.241c-0.037,0.446,0.157,0.488,0.162,0.723
	c0.251-0.087,0.255-0.082,0.24,0.243c0.299-0.05,0.312-0.388,0.724-0.324c0,0.135,0,0.271,0,0.404
	c0.32,0.104,0.165-0.264,0.481-0.16c0.047-0.518-0.662-0.624-0.239-1.048c-0.153-0.063-0.296-0.133-0.483-0.161
	c-0.194,0.058,0.235,0.569-0.161,0.565c0.091-0.333-0.025-0.517-0.241-0.724C19.199,7.113,19.137,7.4,19.032,7.646z M38.906,7.564
	c0.052,0,0.107,0,0.161,0c0-0.214,0-0.428,0-0.643C38.752,6.871,38.973,7.361,38.906,7.564z M8.249,7.886
	C8.65,7.924,8.661,7.29,8.329,7.242C8.12,7.494,8.079,7.591,8.249,7.886z M37.218,7.564c0-0.109,0-0.214,0-0.323
	c-0.082,0-0.162,0-0.242,0C36.954,7.453,36.946,7.646,37.218,7.564z M34.963,7.564c0,0.107,0,0.215,0,0.321
	c0.117,0.044,0.417-0.094,0.404,0.081c0.2,0.332-0.175,0.151-0.161,0.483c0.061,0.018,0.093,0.068,0.079,0.16
	c0.166-0.264,0.565-0.294,0.646-0.643c-0.497,0.073-0.26-0.222-0.163-0.402C35.588,7.309,35.221,7.461,34.963,7.564z M47.036,7.886
	c0.285-0.159,0.16-0.105,0.48,0c-0.057-0.22,0.159-0.161,0.161-0.321c-0.157-0.109-0.458-0.076-0.641-0.16
	C47.036,7.564,47.036,7.726,47.036,7.886z M4.387,7.886c0.345,0.124,0.434-0.367,0.159-0.401C4.513,7.638,4.315,7.629,4.387,7.886z
	 M37.619,9.173c0.208-0.247,0.026-0.937,0.323-1.528c-0.017-0.091-0.088-0.126-0.162-0.161C37.552,7.778,37.206,8.767,37.619,9.173z
	 M32.709,8.045c0.028-0.187-0.013-0.309-0.079-0.4c-0.081,0-0.161,0-0.239,0C32.369,7.906,32.484,8.032,32.709,8.045z M25.71,8.208
	c0.23,0.014,0.157-0.271,0.483-0.163c0-0.079,0-0.16,0-0.241C25.874,7.775,25.568,8.026,25.71,8.208z M52.508,7.967
	c0.101,0.113,0.425,0.006,0.32,0.323c0.206-0.01,0.316-0.119,0.322-0.323C52.865,8.015,52.65,7.585,52.508,7.967z M3.904,8.29
	c0.106,0,0.212,0,0.32,0c0-0.109,0-0.216,0-0.323C4.02,7.977,3.91,8.083,3.904,8.29z M7.122,8.45c0-0.16,0-0.323,0-0.483
	c-0.081,0-0.164,0-0.244,0C6.765,8.21,6.812,8.432,7.122,8.45z M36.817,8.37c0.264,0.224,0.547-0.048,0.563-0.324
	C37.137,7.846,36.836,8.1,36.817,8.37z M23.699,8.45c0.25,0.037,0.358-0.07,0.322-0.323C23.77,8.089,23.66,8.197,23.699,8.45z
	 M48.24,8.45c0-0.106,0-0.215,0-0.323c-0.104,0-0.212,0-0.319,0C47.856,8.404,47.963,8.512,48.24,8.45z M5.272,8.61
	c0.012-0.174-0.069-0.256-0.243-0.24c-0.045,0.366,0.043,0.6,0.321,0.644c0.07-0.28,0.446-0.255,0.482-0.564
	C5.713,8.356,5.637,8.217,5.431,8.208C5.292,8.257,5.437,8.589,5.272,8.61z M24.826,9.658c0.31-0.285,0.182,0.124,0.562,0.16
	c0.124-0.407-0.194-0.662,0.082-1.126C24.753,8.797,24.941,9.241,24.826,9.658z M25.547,8.851c0.246-0.168,0.547,0.137,0.805-0.079
	c-0.107-0.634-0.472-0.074-0.805-0.402C25.477,8.605,25.477,8.616,25.547,8.851z M32.709,8.772c0-0.135,0-0.269,0-0.402
	c-0.079,0-0.16,0-0.24,0C32.455,8.6,32.458,8.807,32.709,8.772z M3.741,9.014C3.844,8.871,4.018,8.481,3.661,8.53
	C3.595,8.589,3.444,9.087,3.741,9.014z M19.192,9.014c-0.006-0.265-0.104-0.435-0.322-0.484C18.838,8.83,18.937,9.001,19.192,9.014z
	 M19.272,10.219c0.069-0.091,0.105-0.214,0.081-0.402C19.056,9.74,19.032,10.214,19.272,10.219z M19.512,10.382
	c0.541-0.332,0.516-0.287,1.128-0.163c0.062-0.65-0.32-0.86-0.564-1.206c0.004-0.245,0.046-0.531-0.241-0.484
	c-0.122,0.191-0.123,0.298-0.402,0.161C19.331,9.415,19.246,9.761,19.512,10.382z M49.69,9.014c0.041-0.309-0.109-0.426-0.322-0.484
	C49.382,8.784,49.424,9.01,49.69,9.014z M5.916,9.014c0.031-0.157,0.31-0.064,0.239-0.323c-0.08,0-0.16,0-0.239,0
	C5.99,8.842,5.675,8.959,5.916,9.014z M21.364,9.173c0.219-0.049,0.316-0.221,0.322-0.482c-0.108,0-0.214,0-0.322,0
	C21.254,8.793,21.254,9.071,21.364,9.173z M37.861,9.173c0.333,0.036,0.29-0.3,0.403-0.482C37.973,8.695,37.834,8.851,37.861,9.173z
	 M20.882,9.658c0.314-0.187,0.318-0.791-0.081-0.886C20.713,9.183,20.418,9.495,20.882,9.658z M8.972,9.335
	c0.227-0.067,0.208,0.113,0.402,0.08C9.399,9.306,9.49,9.261,9.456,9.094c-0.16-0.025-0.163,0.106-0.243,0.159
	C9.146,9.027,9.325,9.047,9.293,8.851C9.038,8.863,8.939,9.035,8.972,9.335z M10.42,9.173c0.026-0.11,0.115-0.153,0.082-0.323
	c-0.082,0-0.163,0-0.245,0C10.236,9.035,10.28,9.155,10.42,9.173z M51.459,9.253c0.167,0.049,0.308,0.124,0.241,0.404
	c0.17-0.129,0.432-0.163,0.644-0.243C52.373,8.856,51.5,8.654,51.459,9.253z M2.455,9.497c0.177-0.036,0.286-0.144,0.321-0.323
	c-0.08-0.083-0.161-0.163-0.241-0.24C2.424,9.036,2.455,9.281,2.455,9.497z M3.098,9.335c0.01-0.201,0.014-0.392-0.161-0.402
	C2.809,9.052,2.822,9.393,3.098,9.335z M6.717,10.06c0.045-0.207-0.01-0.345,0.324-0.402C7.023,9.325,6.567,9.433,6.717,8.934
	C6.338,9.156,6.476,9.946,6.717,10.06z M23.777,9.736c0.45,0.193,0.569-0.521,0.161-0.483C23.868,9.398,23.717,9.459,23.777,9.736z
	 M36.09,10.06c0.074-0.303,0.414-0.34,0.403-0.725c-0.152-0.143-0.532-0.058-0.804-0.082C35.664,9.681,35.663,10.085,36.09,10.06z
	 M24.421,10.06c0.437,0.171,0.454-0.724,0.08-0.645C24.56,9.722,24.178,9.802,24.421,10.06z M52.989,9.736
	c0.026,0.244-0.089,0.626,0.161,0.646c0.139-0.419,0.434-0.199,0.645-0.243c0.082-0.377-0.28-0.309-0.161-0.724
	C53.208,9.412,53.305,9.813,52.989,9.736z M11.871,9.899c0.232,0.015,0.208,0.125,0.56,0.161c0.106-0.107,0.106-0.297,0-0.402
	c-0.364,0.213-0.216,0.026-0.56-0.082C11.871,9.684,11.871,9.792,11.871,9.899z M34.722,10.301
	c-0.072-0.223,0.167-0.756-0.162-0.725C34.633,9.8,34.398,10.331,34.722,10.301z M37.295,10.219
	c0.497-0.152,0.368-0.081,0.724,0.163c0.25-0.291-0.202-0.391-0.078-0.806c-0.081,0-0.162,0-0.242,0
	C37.769,9.993,37.172,9.744,37.295,10.219z M39.067,9.899c0.18-0.037,0.289-0.142,0.322-0.323c-0.105,0-0.212,0-0.322,0
	C39.067,9.684,39.067,9.792,39.067,9.899z M50.816,10.623c0.525-0.137,0.421-0.081,0.968,0c-0.128-0.412-0.248-0.826-0.727-0.886
	C51.163,10.218,50.907,10.336,50.816,10.623z M8.249,10.382c0.175-0.2-0.056-0.479-0.243-0.564
	C7.867,9.98,7.855,10.505,8.249,10.382z M5.189,10.139c0.242,0.188,0.029,0.832,0.321,0.965c0.128-0.327,0.187-0.726,0.165-1.205
	C5.383,9.851,5.437,10.144,5.189,10.139z M21.606,10.462c0.22,0.058,0.161-0.161,0.321-0.161c-0.008-0.205-0.117-0.313-0.321-0.322
	C21.606,10.139,21.606,10.301,21.606,10.462z M22.734,10.06c-0.058,0.269,0.132,0.292,0.317,0.322
	C23.303,10.16,22.955,9.808,22.734,10.06z M39.228,10.462c-0.014-0.254-0.056-0.48-0.322-0.483
	C38.773,10.135,38.968,10.453,39.228,10.462z M34.803,10.219c0,0.135,0,0.269,0,0.403c0.3-0.009,0.23-0.09,0.481,0
	c0.145-0.135-0.072-0.271,0-0.562C35.035,10.02,34.972,10.172,34.803,10.219z M2.293,10.462c0.078,0,0.161,0,0.241,0
	c0.025-0.211-0.029-0.347-0.241-0.323C2.293,10.248,2.293,10.354,2.293,10.462z M25.871,10.462c0-0.107,0-0.214,0-0.323
	C25.561,10.076,25.561,10.525,25.871,10.462z M35.526,10.623c0.231,0.016,0.439,0.01,0.404-0.241
	c-0.138-0.076-0.134-0.298-0.404-0.243C35.526,10.301,35.526,10.462,35.526,10.623z M38.505,10.623
	c-0.047-0.166,0.132-0.559-0.161-0.484C38.214,10.27,38.248,10.646,38.505,10.623z M24.099,10.944
	c0.241-0.19,0.425-0.196,0.485,0.16c0.204-0.009,0.311-0.116,0.321-0.322c-0.211-0.166-0.654-0.098-0.643-0.481
	c-0.264,0.129-0.31-0.017-0.646,0C23.594,10.7,23.864,10.804,24.099,10.944z M6.958,10.623c0.11,0,0.215,0,0.323,0
	C7.345,10.312,6.895,10.312,6.958,10.623z M21.527,10.782c0.01-0.199,0.012-0.389-0.164-0.4
	C21.235,10.501,21.247,10.838,21.527,10.782z M19.354,11.345c0.107,0,0.214,0,0.322,0C19.739,11.037,19.289,11.037,19.354,11.345z
	 M20.076,11.507c0.178-0.143,0.284-0.357,0.323-0.644c-0.103-0.136-0.167-0.316-0.402-0.321c-0.254,0.349,0.087,0.402-0.321,0.643
	C19.979,11.125,19.731,11.613,20.076,11.507z M22.088,10.944c0.02-0.262-0.094-0.386-0.321-0.402
	C21.75,10.798,21.903,10.889,22.088,10.944z M36.896,11.185c-0.245-0.226,0.105-0.573-0.324-0.643
	C36.549,10.887,36.57,11.191,36.896,11.185z M4.785,11.104c0.13-0.121,0.12-0.458-0.159-0.402
	C4.614,10.902,4.61,11.093,4.785,11.104z M34.963,11.185c0.175,0.014,0.037-0.284,0.083-0.403c-0.083,0-0.163,0-0.242,0
	C34.837,10.936,34.693,11.269,34.963,11.185z M2.372,11.185c0-0.107,0-0.214,0-0.322c-0.078,0-0.159,0-0.239,0
	C2.11,11.074,2.105,11.266,2.372,11.185z M25.308,11.185c-0.011-0.204-0.118-0.311-0.324-0.322
	C24.995,11.068,25.102,11.176,25.308,11.185z M21.203,11.507c0.259,0.1,0.063-0.26,0.324-0.162c-0.029-0.185-0.054-0.375-0.324-0.32
	C21.144,11.193,21.144,11.338,21.203,11.507z M21.606,11.345c0.204-0.007,0.313-0.117,0.321-0.32c-0.106,0-0.214,0-0.321,0
	C21.606,11.13,21.606,11.239,21.606,11.345z M47.921,11.507c0.106,0,0.214,0,0.319,0c0-0.106,0-0.214,0-0.322
	C48.053,11.214,47.865,11.239,47.921,11.507z M35.689,11.668c0.294,0.077,0.317-0.396,0.078-0.403
	C35.704,11.359,35.663,11.482,35.689,11.668z M38.745,11.91c0.426,0.173,0.92-0.319,0.483-0.482
	C39.162,11.682,38.696,11.54,38.745,11.91z M11.629,12.07c-0.05-0.164,0.128-0.559-0.164-0.48
	C11.516,11.754,11.335,12.147,11.629,12.07z M11.788,11.75c0.093,0.384,0.031,0.542,0.083,1.044c0.104,0,0.212,0,0.322,0
	c0.128-0.469-0.091-0.862,0.158-1.205C12.017,11.495,12.04,11.758,11.788,11.75z M28.77,12.07c-0.051-0.164,0.127-0.559-0.164-0.48
	C28.656,11.754,28.476,12.147,28.77,12.07z M37.619,12.394c-0.088-0.357,0.137-0.402,0.161-0.644
	c-0.161-0.003-0.102-0.221-0.324-0.161C37.573,11.796,36.986,12.399,37.619,12.394z M6.797,12.07c0.325,0.08,0.325-0.48,0-0.401
	C6.797,11.804,6.797,11.937,6.797,12.07z M5.755,12.07c0.268,0.057,0.293-0.135,0.32-0.32c-0.108,0-0.216,0-0.32,0
	C5.755,11.856,5.755,11.963,5.755,12.07z M21.606,12.794c0.29-0.075,0.114,0.318,0.161,0.484c0.179-0.035,0.288-0.141,0.321-0.322
	c-0.383-0.223,0.189-0.448,0.159-0.804c-0.365,0.267-0.334-0.005-0.399-0.402c-0.081,0-0.162,0-0.242,0
	C21.567,12.271,21.924,12.41,21.606,12.794z M25.388,12.231c0.324,0.079,0.324-0.481,0-0.401
	C25.388,11.963,25.388,12.096,25.388,12.231z M10.019,12.311c0.245,0.125,0.245-0.524,0-0.401
	C10.019,12.043,10.019,12.177,10.019,12.311z M24.182,12.553c0.349,0.054,0.215-0.373,0.24-0.644c-0.081,0-0.159,0-0.24,0
	C24.194,12.159,23.99,12.366,24.182,12.553z M12.351,12.394c0.251,0.123,0.251-0.527,0-0.403
	C12.351,12.124,12.351,12.259,12.351,12.394z M39.067,12.714c-0.009-0.233,0.044-0.525-0.077-0.644c-0.084,0-0.164,0-0.246,0
	C38.768,12.372,38.855,12.604,39.067,12.714z M21.043,12.553c0.289,0.013,0.289-0.416,0-0.401
	C21.043,12.285,21.043,12.42,21.043,12.553z M37.295,12.956c0.256,0.039,0.185-0.247,0.485-0.162c0-0.053,0-0.106,0-0.16
	c-0.3,0.088-0.229-0.2-0.485-0.16C37.295,12.634,37.295,12.794,37.295,12.956z M47.6,12.794c0.149-0.017,0.179,0.091,0.321,0.081
	c0-0.134,0-0.268,0-0.401C47.714,12.483,47.607,12.59,47.6,12.794z M3.741,12.956c0.213,0.022,0.265-0.111,0.242-0.322
	c-0.079,0-0.161,0-0.242,0C3.741,12.741,3.741,12.848,3.741,12.956z M37.7,13.52c0.219-0.059,0.161,0.16,0.32,0.16
	c0.141-0.289,0.033-0.326,0.324-0.16c0.003-0.406-0.236-0.57-0.402-0.806C37.904,13.026,37.702,13.173,37.7,13.52z M20.158,13.52
	c0.37,0.044,0.334,0.075,0.724,0.16c-0.013-0.386,0.417-0.335,0.321-0.804C20.76,12.737,20.147,12.955,20.158,13.52z M5.832,13.358
	c0-0.106,0-0.214,0-0.321c-0.108,0-0.214,0-0.322,0C5.458,13.306,5.647,13.33,5.832,13.358z M36.252,13.358
	c0.019,0.143-0.081,0.404,0.161,0.321c0.148-0.093,0.053-0.427,0.404-0.321c-0.014-0.151-0.055-0.269-0.165-0.321
	C36.564,13.186,36.558,13.423,36.252,13.358z M38.583,13.679c0.418-0.041,0.263-0.286,0.243-0.643c-0.082,0-0.161,0-0.243,0
	C38.583,13.251,38.583,13.466,38.583,13.679z M39.067,13.761c0.248-0.047,0.193-0.397,0.322-0.562
	c-0.159-0.002-0.101-0.22-0.322-0.162C38.898,13.216,39.15,13.424,39.067,13.761z M48.646,13.198
	c0.106,0.024,0.154,0.113,0.321,0.08c0-0.08,0-0.161,0-0.241C48.783,13.013,48.662,13.057,48.646,13.198z M6.479,13.358
	c0.211,0.299,0.006,1.011,0.48,1.047c0.143-0.243-0.215-0.556-0.08-1.047C6.678,13.348,6.632,13.207,6.479,13.358z M9.293,13.679
	c0.205-0.009,0.312-0.116,0.322-0.321c-0.107,0-0.215,0-0.322,0C9.293,13.466,9.293,13.573,9.293,13.679z M46.474,14.082
	c0.246,0.014,0.131,0.129,0.479,0.162c-0.079-0.456-0.159-0.553-0.321-0.806C46.541,13.688,46.643,13.814,46.474,14.082z
	 M21.767,14.163c0.02-0.112,0.177-0.092,0.241-0.161c0.06-0.247-0.139-0.235-0.081-0.482C21.667,13.521,21.441,14.063,21.767,14.163
	z M4.305,14.082c0.199-0.041,0.485,0.003,0.48-0.239c-0.095-0.119-0.306-0.125-0.398-0.244C4.292,13.695,4.294,13.885,4.305,14.082z
	 M28.448,14.001c0.126-0.12,0.115-0.459-0.164-0.403C28.272,13.799,28.271,13.99,28.448,14.001z M11.707,14.967
	c-0.106-0.081-0.299-0.076-0.321-0.241c0.178,0.016,0.255-0.065,0.244-0.241c-0.091-0.018-0.126-0.089-0.164-0.161
	c-0.383-0.036-0.439,0.257-0.562,0.481c-0.207-0.116-0.203-0.439-0.646-0.32c0.186,0.26,0.175,0.667-0.239,0.725
	c-0.027,0.186,0.012,0.309,0.078,0.401c0.302,0.084,0.16-0.271,0.324-0.323c-0.11,0.362,0.324,0.393,0.483,0.242
	c0.075-0.398-0.487-0.157-0.401-0.563c0.15,0.292,0.229,0.033,0.481,0c0.164,0.106,0.113,0.427,0.321,0.484
	c0.08-0.404,0.539-0.429,0.887-0.564c0,0.215,0,0.429,0,0.644c0.413-0.016,0.587-0.269,1.042-0.242
	c-0.069-0.419,0.255-0.444,0.405-0.24c0.16-0.188-0.15-0.453,0.078-0.644c0.244,0.181-0.06,0.788,0.083,0.884
	c0.511,0.001,0.263-0.753,0.32-1.207c-0.246-0.208-0.738-0.173-1.045-0.321c-0.015,0.089-0.087,0.125-0.159,0.161
	c0.088,0.284,0.347,0.405,0.24,0.884c-0.142-0.006-0.25,0.02-0.323,0.081c-0.006-0.126,0.013-0.278-0.158-0.241
	c-0.225-0.036,0.063,0.44-0.161,0.403c0.07-0.259-0.267-0.11-0.243-0.322c0.07-0.142,0.257-0.235,0.08-0.402
	c-0.157-0.023-0.158,0.109-0.241,0.161c-0.035-0.152,0.11-0.484-0.16-0.403c-0.096,0.12-0.234,0.197-0.243,0.403
	C11.707,14.703,12.047,14.861,11.707,14.967z M37.942,14.082c0.106,0,0.214,0,0.322,0c-0.011-0.149-0.053-0.268-0.159-0.321
	C38.103,13.922,37.884,13.863,37.942,14.082z M19.997,14.244c0.296-0.03,0.636-0.009,0.644-0.322c-0.217,0-0.429,0-0.644,0
	C19.997,14.028,19.997,14.136,19.997,14.244z M35.285,14.244c0.107,0,0.217,0,0.324,0c0-0.108,0-0.216,0-0.322
	C35.403,13.931,35.295,14.038,35.285,14.244z M29.01,14.405c-0.028-0.186-0.054-0.377-0.322-0.323
	C28.65,14.335,28.756,14.442,29.01,14.405z M14.203,14.565c0.254,0.119,0.386-0.462,0.078-0.403
	C14.215,14.257,14.177,14.378,14.203,14.565z M30.458,14.565c0.2,0.011,0.39,0.016,0.401-0.161
	c-0.164-0.023-0.155-0.218-0.322-0.242C30.471,14.257,30.432,14.378,30.458,14.565z M34.399,14.565c0.291,0.016,0.291-0.417,0-0.403
	C34.399,14.298,34.399,14.432,34.399,14.565z M3.661,14.646c0.154,0.034,0.145,0.23,0.403,0.16c-0.067-0.225,0.114-0.208,0.08-0.401
	c-0.101-0.005-0.112-0.104-0.239-0.081C3.973,14.583,3.638,14.435,3.661,14.646z M36.01,14.565c0.111,0.003,0.177-0.038,0.243-0.08
	c-0.006,0.138,0.061,0.205,0.161,0.241c0.107-0.103,0.124-0.395-0.082-0.402c-0.052,0.241-0.17-0.077-0.321,0
	C36.01,14.405,36.01,14.485,36.01,14.565z M48.082,14.405c-0.017-0.12-0.196-0.075-0.322-0.081
	C47.586,14.62,48.168,14.687,48.082,14.405z M37.619,14.565c-0.015-0.12-0.195-0.074-0.324-0.08
	C37.125,14.781,37.708,14.848,37.619,14.565z M48,14.806c0.229,0.103,0.461,0.063,0.405-0.32C48.167,14.49,48.104,14.669,48,14.806z
	 M20.076,14.967c0-0.107,0-0.214,0-0.322c-0.08,0-0.16,0-0.241,0C19.815,14.857,19.807,15.048,20.076,14.967z M24.099,14.806
	c0.225,0.555,0.445,0.819,0.322,1.37c0.283,0.014,0.346-0.191,0.484-0.322c-0.212-0.083-0.09-0.497-0.321-0.565
	c0.138-0.104,0.315-0.166,0.321-0.402C24.617,14.76,24.394,14.524,24.099,14.806z M27.561,14.967c0.188,0,0.376,0,0.565,0
	C28.239,14.475,27.486,14.602,27.561,14.967z M3.339,15.127c0.107,0,0.212,0,0.322,0c0.037-0.251-0.072-0.359-0.322-0.322
	C3.339,14.915,3.339,15.022,3.339,15.127z M36.01,15.289c0.096,0.012,0.228-0.013,0.243,0.08c-0.38,0.218,0.042,0.844-0.243,1.048
	c0.187,0.055,0.215,0.267,0.403,0.321c0.111-0.048,0.012-0.311,0.159-0.321c-0.023,0.158,0.108,0.159,0.16,0.241
	c-0.199,0.04-0.268,0.214-0.48,0.242c0,0.133,0,0.269,0,0.402c0.305-0.041,0.425,0.11,0.48,0.321
	c0.295-0.108,0.611-0.348,0.887-0.241c-0.133-0.341,0.009-0.479-0.324-0.564c0.089,0.231-0.084,0.597-0.239,0.324
	c0.239,0.081,0.142-0.181,0.162-0.324c-0.117-0.044-0.415,0.095-0.401-0.08c0.24-0.294-0.229-0.441,0-0.805
	c-0.109,0-0.216,0-0.324,0c0.116-0.303-0.22-0.154-0.162-0.402c0.227-0.015,0.342-0.142,0.321-0.403
	c-0.22-0.046-0.334-0.199-0.562-0.241C36.023,14.981,35.984,15.102,36.01,15.289z M34.561,15.048c0.036,0.549-0.094,0.77,0,1.207
	c0.438-0.036,0.392-0.879,0.162-1.288C34.706,15.03,34.656,15.062,34.561,15.048z M7.446,15.451c0.25,0.037,0.356-0.072,0.319-0.324
	C7.545,14.878,7.192,15.228,7.446,15.451z M38.906,15.854c0.353-0.067,0.395-0.497,0.724-0.163c0.153-0.143-0.066-0.203,0-0.481
	c-0.227,0.066-0.206-0.113-0.402-0.083C39.179,15.428,38.833,15.429,38.906,15.854z M8.168,15.611
	c0.124-0.115,0.079-0.418-0.162-0.401C7.878,15.33,7.887,15.668,8.168,15.611z M8.729,16.175c0.258,0.068,0.251-0.127,0.404-0.162
	c0.012,0.262,0.701,0.552,0.724,0.08c-0.425,0.104-0.435-0.208-0.401-0.562c-0.339,0.205-0.178-0.15-0.323-0.321
	C8.627,15.13,8.542,15.818,8.729,16.175z M19.756,15.451c-0.091,0.491,0.362,0.439,0.561,0.642c-0.07,0.58,0.019,0.86,0,1.53
	c0.37-0.117,0.58-0.387,0.806-0.644c-0.142-0.018-0.401,0.081-0.321-0.161c0.189-0.131,0.588-0.057,0.484-0.481
	c-0.286-0.142-0.417,0.269-0.484,0.08c0.079-0.362,0.326-0.139,0.402-0.403c-0.119-0.172-0.197,0.058-0.402-0.081
	c-0.103-0.244-0.079-0.619-0.324-0.723C20.412,15.61,20.026,15.223,19.756,15.451z M48.482,15.691c0.336,0.09,0.336-0.569,0-0.481
	C48.409,15.444,48.409,15.457,48.482,15.691z M25.147,15.854c0.272-0.035,0.18-0.589-0.164-0.485
	C24.875,15.48,24.907,15.854,25.147,15.854z M53.554,15.691c0.217,0.06,0.159-0.16,0.318-0.16c0.015,0.099,0.026,0.19,0.164,0.16
	c0-0.106,0-0.214,0-0.322c-0.254,0.092-0.184,0.008-0.482,0C53.554,15.477,53.554,15.584,53.554,15.691z M7.522,16.014
	c0.251,0.083,0.52-0.469,0.162-0.483C7.612,15.675,7.46,15.735,7.522,16.014z M11.144,15.854c0.258,0.017,0.349-0.135,0.402-0.323
	C11.285,15.51,11.158,15.627,11.144,15.854z M19.512,15.854c0-0.109,0-0.215,0-0.323c-0.079,0-0.159,0-0.24,0
	C19.25,15.74,19.244,15.933,19.512,15.854z M38.181,15.933c-0.363-0.016-0.429,0.213-0.724,0c0,0.161,0,0.323,0,0.484
	c0.516-0.139,0.397,0.355,0.807,0.321c-0.038-0.365,0-0.596,0.32-0.401c0.056-0.243,0.311-0.282,0.243-0.646
	c-0.21-0.202-0.271,0.203-0.483,0.242c-0.038-0.151,0.109-0.483-0.163-0.402C38.181,15.665,38.181,15.8,38.181,15.933z
	 M10.903,15.854c-0.013-0.119-0.194-0.075-0.322-0.081C10.41,16.068,10.994,16.136,10.903,15.854z M21.606,16.175
	c0.418,0.122,0.514-0.391,0.161-0.403C21.829,16.021,21.488,15.87,21.606,16.175z M31.986,15.933
	c-0.199,0.067-0.693-0.156-0.644,0.161c0.356,0.044,0.468,0.335,0.885,0.323c0.024-0.108,0.114-0.155,0.083-0.323
	C31.986,16.068,31.984,16.44,31.986,15.933z M38.827,16.818c0.223,0.223,0.335-0.072,0.562-0.08c0-0.215,0-0.429,0-0.645
	c-0.105,0-0.212,0-0.322,0C39.125,16.392,38.887,16.453,38.827,16.818z M3.178,16.818c0.296,0.046,0.366-0.636,0-0.562
	C3.178,16.444,3.178,16.63,3.178,16.818z M19.11,16.979c0.256,0.069,0.25-0.128,0.402-0.161c-0.062-0.258-0.072-0.568-0.402-0.562
	C19.11,16.497,19.11,16.738,19.11,16.979z M34.641,16.417c-0.129,0.585,0.64,0.273,0.644,0.725c0.256-0.342,0.419,0.058,0.646-0.404
	c-0.288-0.033-0.338-0.306-0.646-0.321c-0.01,0.095,0.015,0.229-0.079,0.241C35.051,16.41,34.984,16.314,34.641,16.417z
	 M22.088,17.302c0.107,0,0.214,0,0.324,0c0.055-0.255,0.066-0.55,0-0.724c-0.199,0.318-0.076-0.348-0.405-0.161
	C22.033,16.711,21.94,17.128,22.088,17.302z M28.928,17.222c-0.184-0.04-0.411-0.16-0.564,0c-0.008-0.126,0.012-0.281-0.16-0.243
	c-0.448,0.277-1.002,0.446-0.805,1.369c0.334,0.093,0.314-0.17,0.562-0.163c0.026,0.164,0.164,0.214,0.242,0.323
	c0.253,0.039,0.315-0.176,0.484,0c0.018-0.451,0.289-0.343,0.561-0.403c0.043-0.336-0.368-0.222-0.48-0.401
	c0.192-0.077,0.326-0.21,0.4-0.403c-0.034,0.328,0.265,0.324,0.163,0.723c0.159,0,0.322,0,0.482,0
	c0.068-0.257-0.211-0.166-0.244-0.32c0.06-0.184,0.244-0.242,0.402-0.323c0-0.214,0-0.429,0-0.644
	c-0.214-0.079-0.475-0.113-0.641-0.241C29.141,16.68,29.231,17.146,28.928,17.222z M30.619,16.899
	c0.186,0.026,0.31-0.012,0.403-0.082c0.016-0.15-0.091-0.177-0.079-0.321c-0.109,0-0.218,0-0.324,0
	C30.619,16.63,30.619,16.764,30.619,16.899z M47.76,48.284c0.089-0.096,0.089-0.287,0.078-0.483c-0.078,0-0.161,0-0.238,0
	C47.6,48.012,47.553,48.274,47.76,48.284z M38.344,55.525c0.082,0,0.161,0,0.24,0c1.482-2.007,3.927-3.049,5.474-4.989
	c1.604-1.027,2.763-2.495,4.504-3.381c0.305-1-0.307-1.344,0-2.334c-0.174-0.171-0.161-0.534-0.322-0.723
	c-0.084-0.406,0.24-0.406,0.322-0.646c-0.41-0.329-0.437-1.378-0.322-1.769c-0.115-0.178-0.194,0.102-0.239-0.082
	c-0.165-3.003-0.576-6.453-1.047-9.413c-1.866,0.761-2.739,2.517-3.942,3.943c-0.104,0-0.214,0-0.324,0
	c0.333,0.688-0.668,0.98-0.642,1.849c-0.092-0.066-0.217-0.105-0.404-0.081c-0.124,0.341,0.45-0.016,0.324,0.325
	c-0.369,0.305-0.301,1.278-0.724,1.286c0.02,0.941-1.015,2.614-0.888,3.622c-0.3-0.087-0.228,0.199-0.481,0.16
	c0.013,0.283-0.022,0.514-0.162,0.643c-0.152-0.159-0.38-0.038-0.563,0c0.003-0.101,0.104-0.109,0.081-0.24
	c-0.266,0.028-0.348,0.239-0.483,0.402c0.05,0.112,0.313,0.013,0.323,0.159c-0.491,0.175-0.782-0.024-1.448,0
	c-0.111,0.185,0.206,0.305,0,0.326c-0.142-0.021-0.183-0.141-0.163-0.326c-0.327,0.262-0.931,0.162-1.285,0
	c-0.179,0.119,0.102,0.199-0.082,0.243c-0.189-0.025-0.15-0.28-0.4-0.243c-0.065,0.396-0.571,0.033-0.727,0
	c-0.012,0.097,0.017,0.229-0.081,0.243c0.004-0.139-0.062-0.205-0.16-0.243c-0.403,0.474-0.904,0.21-1.449,0.084
	c0.192-1.129,0-1.659,0-2.898c0.166,0.045,0.157,0.241,0.323,0.08c-0.341-0.509-0.498-1.816-0.161-2.493
	c-0.392-1.057-0.06-2.347-0.162-3.703c0.263,0.1,0.062-0.259,0.323-0.16c0.062-0.303-0.306-0.176-0.323-0.403
	c-0.284-6.005,0.235-12.312-0.161-18.267c-0.276-0.034-0.242,0.241-0.403,0.321c0.075-0.341-0.193-0.343-0.481-0.321
	c-0.021,0.315,0.268,0.321,0.241,0.645c-1.461,1.701-3.207,3.122-5.309,4.183c-0.104,0.677,0.204,1.764-0.163,2.172
	c0.218,0.659,0.173,1.288,0.08,2.012c-0.153-0.061-0.053-0.24-0.241-0.08c-0.016,0.286,0.379,0.16,0.324,0.481
	c0.056,0.251-0.223,0.157-0.163,0.404c0.235,1.56-0.24,3.22-0.242,4.507c-0.004,2.05-0.065,4.461-0.079,6.197
	c-0.002,0.042,0.175,0.088,0.16,0.24c-0.041,0.391-0.223,0.571-0.16,0.886c0.088,0.455-0.077,0.336-0.161,0.722
	c0.014-0.059,0,0.56,0,0.564c-0.009,0.119,0.165,0.212,0.161,0.323c-0.006,0.255-0.215,0.573-0.243,0.884
	c-0.044,0.492,0.054,1.035,0,1.53c-0.092,0.833-0.502,2.402-0.482,2.979c0.004,0.184,0.176,0.229,0.16,0.401
	c-0.087,1.023-0.468,2.077-0.401,3.139c0.66,0.299,1.246,0.754,1.45,1.288c0.285,0.125,0.046-0.275,0.239-0.241
	c2.05,1.357,3.265,3.547,5.392,4.829c-0.101,0.03-0.165,0.102-0.161,0.24c0.567-0.031,0.341,0.732,1.048,0.563
	c0.565,1.124,1.765,1.611,2.332,2.736c0.567-0.186,0.748-0.754,1.127-1.126c-0.103,0.315,0.222,0.27,0.32,0.161
	c0.13-0.315-0.208-0.168-0.238-0.322C37.537,56.325,38.073,56.061,38.344,55.525z M31.582,17.302
	c0.437,0.035,0.416-0.391,0.566-0.644c-0.108,0-0.216,0-0.323,0C31.79,16.913,31.572,16.996,31.582,17.302z M5.755,17.302
	c0.121-0.001,0.175-0.597-0.08-0.484C5.608,16.876,5.458,17.375,5.755,17.302z M37.942,17.302c0-0.16,0-0.323,0-0.484
	c-0.081,0-0.162,0-0.242,0C37.697,17.062,37.652,17.348,37.942,17.302z M4.387,17.623c0.017-0.143-0.082-0.401,0.159-0.321
	c-0.01-0.257-0.184-0.354-0.481-0.323C4.074,17.293,3.968,17.721,4.387,17.623z M18.871,17.382
	c-0.142,0.071-0.206,0.225-0.485,0.161c-0.028,0.21-0.04,0.439-0.161,0.562c-0.037-0.207-0.631-0.274-0.561,0.08
	c0.235,0.098,0.484,0.483,0.241,0.805c0.21,0.031,0.288,0.194,0.242,0.484c0.106,0,0.214,0,0.32,0
	c-0.079-0.374,0.105-0.485,0.162-0.725c-0.06-0.127-0.396,0.019-0.323-0.241c0.664-0.061,0.969-0.481,1.207-0.965
	c-0.033-0.155-0.229-0.145-0.159-0.401c-0.233-0.114-0.411,0.218-0.483,0c-0.006-0.049-0.012-0.095-0.081-0.083
	C18.629,17.222,18.768,17.273,18.871,17.382z M7.203,17.786c0.003-0.209,0.344-0.087,0.244-0.404c-0.107,0-0.219,0-0.324,0
	C7.079,17.587,7.015,17.663,7.203,17.786z M34.963,18.105c-0.064,0.279,0.091,0.34,0.162,0.483c0.433-0.049,0.389-0.578,0.885-0.564
	c0.06-0.298-0.137-0.344-0.08-0.643C35.337,17.352,35.479,18.059,34.963,18.105z M39.792,17.462c-0.014-0.119-0.194-0.074-0.32-0.08
	C39.298,17.678,39.88,17.744,39.792,17.462z M20.561,17.865c0.278-0.01,0.204,0.332,0.482,0.32c0.227-0.015,0.342-0.14,0.321-0.4
	C21.235,17.352,20.707,17.634,20.561,17.865z M11.064,18.024c0-0.106,0-0.212,0-0.32C10.754,17.641,10.754,18.09,11.064,18.024z
	 M52.264,17.946c0.046,0.141,0.652,0.173,0.485-0.16C52.704,17.644,52.1,17.611,52.264,17.946z M16.938,18.268
	c0.106,0.102,0.296,0.102,0.404,0c0.02-0.185-0.021-0.304-0.163-0.322C17.157,18.109,16.962,18.104,16.938,18.268z M21.927,18.911
	c0.054,0,0.109,0,0.161,0c0-0.215,0-0.43,0-0.644C21.771,18.218,21.995,18.708,21.927,18.911z M20.561,19.072
	c0.059-0.127,0.252-0.12,0.241-0.322c-0.095-0.093-0.287-0.091-0.485-0.08C20.302,18.899,20.306,19.108,20.561,19.072z
	 M6.235,18.911c0.021,0.465,0.489,0.528,0.887,0.403c-0.027-0.472-0.483-0.016-0.405-0.564C6.464,18.711,6.404,18.863,6.235,18.911z
	 M16.777,19.233c0.167-0.166,0-0.409-0.239-0.403C16.521,19.062,16.525,19.269,16.777,19.233z M34.963,19.314
	c0.109,0,0.214,0,0.322,0c-0.018-0.144,0.083-0.406-0.16-0.324C35.223,19.251,34.864,19.053,34.963,19.314z M20.722,19.474
	c0.023-0.108,0.112-0.152,0.08-0.321c-0.08,0-0.161,0-0.241,0C20.535,19.335,20.581,19.455,20.722,19.474z M21.927,20.037
	c0.247-0.153,0.207-0.599,0.32-0.884c-0.105,0-0.211,0-0.32,0C21.927,19.446,21.927,19.742,21.927,20.037z M24.584,19.474
	c0-0.107,0-0.214,0-0.321c-0.083,0-0.163,0-0.244,0C24.32,19.362,24.314,19.555,24.584,19.474z M36.572,20.359
	c0.405-0.001,0.553-1.066,0.16-1.126C36.693,19.62,36.502,19.857,36.572,20.359z M16.375,20.197c0.477,0.021,0.27-0.64,0.804-0.562
	c-0.01-0.259-0.181-0.354-0.48-0.321C16.682,19.701,16.344,19.765,16.375,20.197z M25.79,19.554
	c0.093,0.067,0.215,0.106,0.403,0.082C26.27,19.339,25.797,19.314,25.79,19.554z M18.386,19.876c0.122,0.127,0.46,0.116,0.404-0.163
	C18.588,19.703,18.401,19.7,18.386,19.876z M19.272,20.921c0.04,0.203,0.212,0.271,0.24,0.484c0.389-0.165,0.57-0.022,1.128-0.241
	c-0.223-0.5-0.825-0.624-1.046-1.127C19.702,20.547,19.375,20.624,19.272,20.921z M38.425,20.682
	c0.069,0.117,0.119,0.255,0.319,0.239c-0.011-0.293,0.416-0.684,0.082-0.805C38.752,20.363,38.435,20.372,38.425,20.682z
	 M9.213,20.359c-0.018,0.151,0.091,0.176,0.081,0.323c0.244-0.026,0.626,0.087,0.644-0.162C9.795,20.374,9.471,20.139,9.213,20.359z
	 M23.373,20.759c0.25,0.125,0.25-0.522,0-0.4C23.373,20.493,23.373,20.628,23.373,20.759z M24.263,20.921
	c0.038-0.333,0-0.589-0.325-0.562C23.907,20.686,23.969,20.919,24.263,20.921z M20.882,20.759c0.081,0,0.161,0,0.241,0
	c0.024-0.208-0.03-0.345-0.241-0.32C20.882,20.547,20.882,20.654,20.882,20.759z M25.47,21.485c0.298,0.005,0.347-0.24,0.401-0.484
	C25.595,21.021,25.521,21.244,25.47,21.485z M25.47,20.759c-0.135,0-0.269,0-0.405,0c-0.069,0.386,0.19,0.721,0.405,0.565
	C25.47,21.138,25.47,20.948,25.47,20.759z M35.847,21.245c0.18-0.035,0.082-0.44-0.08-0.402
	C35.708,20.896,35.559,21.322,35.847,21.245z M26.515,22.209c0.181,0.227,0.63-0.379,0.24-0.483
	C26.711,21.924,26.445,21.898,26.515,22.209z M22.413,22.613c-0.003-0.214,0.042-0.475-0.166-0.482
	C22.021,22.318,21.924,22.619,22.413,22.613z M19.512,22.853c0.313,0.019,0.506-0.084,0.564-0.32
	c0.007-0.328-0.295-0.347-0.643-0.324C19.44,22.441,19.388,22.737,19.512,22.853z M23.938,22.452
	c0.015,0.229-0.067,0.552,0.161,0.562c0.058-0.266,0.223-0.421,0.322-0.643C24.257,22.199,24.106,22.394,23.938,22.452z
	 M36.01,22.853c0.109,0,0.214,0,0.321,0c0.055-0.269-0.135-0.292-0.321-0.32C36.01,22.639,36.01,22.747,36.01,22.853z
	 M22.088,23.658c-0.025-0.243,0.091-0.625-0.161-0.644C21.793,23.172,21.829,23.651,22.088,23.658z M18.871,24.062
	c0.275,0.045,0.423,0.219,0.724,0.24c0.033-0.154,0.229-0.145,0.161-0.403c-0.049-0.19-0.353-0.131-0.244-0.483
	c-0.266-0.037-0.251,0.066-0.642-0.079C18.871,23.577,18.871,23.819,18.871,24.062z M35.609,24.142
	c-0.078-0.245,0.169-0.816-0.161-0.804C35.289,23.578,35.177,24.111,35.609,24.142z M63.612,24.302c0-0.214,0-0.428,0-0.644
	C63.324,23.672,63.271,24.314,63.612,24.302z M21.606,24.543c0.08,0,0.161,0,0.242,0c0.025-0.21-0.03-0.346-0.242-0.321
	C21.606,24.33,21.606,24.436,21.606,24.543z M21.927,25.269c0.054,0,0.109,0,0.161,0c0-0.214,0-0.429,0-0.646
	C21.771,24.575,21.995,25.067,21.927,25.269z M36.572,25.187c0.199,0.011,0.389,0.013,0.484-0.079
	c-0.011-0.205-0.118-0.314-0.324-0.322C36.794,25.033,36.458,24.883,36.572,25.187z M38.666,25.75
	c-0.118-0.442,0.292-0.353,0.325-0.642c-0.287,0.042-0.199-0.287-0.485-0.242C38.41,25.037,38.276,25.81,38.666,25.75z
	 M39.471,25.588c0.2-0.065,0.692,0.159,0.644-0.16c-0.156-0.179-0.423-0.07-0.562-0.403C39.44,25.129,39.471,25.376,39.471,25.588z
	 M21.606,25.429c0.08,0,0.161,0,0.242,0c0.025-0.211-0.03-0.346-0.242-0.321C21.606,25.215,21.606,25.322,21.606,25.429z
	 M25.547,25.67c0,0.08,0,0.161,0,0.24c0.275-0.021,0.184-0.409,0.404-0.481c0.089,0.31-0.284,0.286-0.081,0.481
	c0.293,0,0.17-0.417,0.563-0.322c0-0.106,0-0.212,0-0.32c-0.255,0.122-0.353,0.027-0.644,0C25.525,25.395,25.869,25.64,25.547,25.67
	z M62.806,25.588c0.027-0.107,0.115-0.153,0.083-0.32c-0.135,0-0.265,0-0.404,0C62.498,25.473,62.605,25.579,62.806,25.588z
	 M19.11,26.314c0.193,0.53,0.528,0.051,0.806,0.321c0-0.16,0-0.321,0-0.482c-0.415-0.104-0.408-0.196-0.241-0.564
	c-0.096-0.065-0.217-0.104-0.403-0.08C19.375,25.937,19.041,25.919,19.11,26.314z M21.767,25.91c0.108-0.1,0.125-0.392-0.081-0.401
	C21.576,25.612,21.562,25.902,21.767,25.91z M61.602,26.635c0.241-0.004,0.188-0.526,0.081-0.642c-0.081,0-0.165,0-0.244,0
	C61.381,26.18,61.22,26.68,61.602,26.635z M61.841,26.153c0,0.134,0,0.269,0,0.404c0.188-0.134,0.413-0.234,0.565-0.404
	c-0.064-0.018-0.095-0.065-0.083-0.16C62.04,26.089,62.06,26.109,61.841,26.153z M21.686,26.716
	c0.013-0.226-0.226-0.201-0.322-0.322C21.111,26.62,21.498,26.931,21.686,26.716z M38.02,27.361
	c0.268-0.055,0.321-0.327,0.485-0.484c-0.213-0.208-0.062,0.13-0.324,0.078c-0.164-0.124,0.051-0.636-0.32-0.561
	C37.818,26.813,37.884,27.123,38.02,27.361z M61.841,27.198c0.277-0.149,0.205-0.149,0.482,0c0.256,0.041,0.029-0.4,0.322-0.321
	c-0.092-0.178-0.094-0.444-0.322-0.483C62.172,26.672,61.924,26.851,61.841,27.198z M34.963,27.198c0.109,0,0.214,0,0.322,0
	c0.101-0.228,0.013-0.478-0.322-0.482C34.963,26.877,34.963,27.04,34.963,27.198z M61.357,26.877
	c-0.106,0.479,0.58,0.388,0.402-0.08C61.574,26.771,61.452,26.809,61.357,26.877z M37.619,27.44c0-0.16,0-0.32,0-0.485
	c-0.108,0-0.216,0-0.324,0C37.265,27.257,37.362,27.431,37.619,27.44z M18.547,27.28c0,0.241,0,0.482,0,0.725
	c0.182,0.086,0.404,0.133,0.563,0.24c0.173-0.35-0.039-0.538,0.402-0.32c0.15-0.527-0.495-0.255-0.32-0.804
	c-0.286,0.158-0.16,0.102-0.483,0C18.699,27.216,18.685,27.311,18.547,27.28z M64.741,27.44c0.023-0.108,0.112-0.153,0.077-0.32
	c-0.077,0-0.159,0-0.242,0C64.555,27.302,64.597,27.421,64.741,27.44z M20.962,27.601c0-0.106,0-0.214,0-0.321
	c-0.081,0-0.161,0-0.241,0C20.701,27.489,20.691,27.682,20.962,27.601z M38.745,27.925c0.109,0,0.214,0,0.323,0
	c0.04-0.255-0.1-0.33-0.241-0.404C38.76,27.614,38.719,27.735,38.745,27.925z M39.389,27.925c0.012-0.202,0.015-0.39-0.161-0.404
	C39.101,27.642,39.111,27.98,39.389,27.925z M42.366,27.925c0.2,0.011,0.392,0.014,0.404-0.163
	C42.648,27.635,42.311,27.645,42.366,27.925z M20.158,28.166c-0.029,0.428,0.24,0.564,0.564,0.643
	C20.939,28.205,20.803,27.875,20.158,28.166z M21.606,28.969c0.281,0.042,0.342-0.539,0.08-0.562
	C21.574,28.51,21.606,28.755,21.606,28.969z M21.767,29.051c0.01,0.203,0.117,0.31,0.321,0.32c0.193-0.208,0.127-0.678,0.324-0.884
	c-0.097-0.093-0.287-0.092-0.485-0.081C21.873,28.87,22.15,29.071,21.767,29.051z M22.652,29.533
	c-0.061-0.381,0.09-0.553,0.082-0.886c-0.105-0.004-0.113-0.102-0.243-0.079C22.577,28.959,21.981,29.507,22.652,29.533z
	 M19.433,29.774c0.079,0,0.162,0,0.242,0c0.022-0.21-0.029-0.346-0.242-0.321C19.433,29.559,19.433,29.667,19.433,29.774z
	 M18.79,29.937c0-0.11,0-0.216,0-0.324c-0.081,0-0.161,0-0.243,0C18.526,29.825,18.522,30.016,18.79,29.937z M21.043,30.177
	c0.265,0.267,0.629,0.273,0.643-0.241C21.456,29.745,21.048,29.895,21.043,30.177z M69.487,30.097
	c0.048,0.381,0.286,0.571,0.481,0.804c-0.107,0-0.214,0-0.32,0c0.084,0.236,0.229,0.416,0.157,0.805
	c0.434-0.024,0.108-0.805,0.485-0.885c-0.283-0.175-0.142-0.77-0.402-0.967C69.879,30.06,69.588,29.985,69.487,30.097z
	 M22.008,30.417c0.062-0.053,0.208-0.478-0.081-0.4C21.887,30.22,21.821,30.295,22.008,30.417z M19.595,30.74
	c0.068,0.117,0.121,0.255,0.321,0.24c-0.158-0.479,0.45-0.192,0.323-0.642c-0.163,0-0.323,0-0.483,0
	C19.871,30.641,19.533,30.493,19.595,30.74z M21.527,30.659c0.313-0.075,0.2,0.279,0.561,0.162c0.136-0.379-0.378-0.105-0.24-0.483
	c-0.081,0-0.162,0-0.242,0C21.622,30.488,21.518,30.516,21.527,30.659z M24.906,30.821c-0.095-0.069-0.216-0.106-0.404-0.081
	C24.361,31.101,24.928,31.029,24.906,30.821z M70.211,31.786c0.14,0.211,0.581,0.211,0.723,0
	C70.939,31.193,70.206,31.193,70.211,31.786z M71.416,32.833c0.175,0.012,0.037-0.287,0.082-0.404c-0.082,0-0.159,0-0.24,0
	C71.292,32.581,71.145,32.915,71.416,32.833z M69.565,32.672c0.167,0.278-0.333,0.742,0.163,0.884
	c0.01-0.342-0.157-0.404,0.161-0.483c-0.002-0.213,0.044-0.473-0.161-0.483C69.708,32.655,69.66,32.685,69.565,32.672z
	 M70.127,33.476c0.02-0.062,0.068-0.094,0.164-0.08c-0.074-0.225,0.165-0.756-0.164-0.724C70.25,33.056,69.704,33.279,70.127,33.476
	z M54.679,34.763c0.135,0.192,0.215,0.382,0.483,0.241c0.042-0.363-0.059-0.979-0.401-1.367
	C54.481,34.076,55.047,34.414,54.679,34.763z M59.428,33.717c-0.017-0.118-0.196-0.072-0.322-0.08
	C58.936,33.932,59.516,34,59.428,33.717z M63.291,34.439c0.255-0.009,0.353-0.182,0.321-0.48c-0.135,0-0.267,0-0.404,0
	C63.208,34.147,63.347,34.196,63.291,34.439z M71.175,34.439c0-0.104,0-0.212,0-0.319C70.867,34.058,70.867,34.505,71.175,34.439z
	 M52.828,34.603c0.382-0.033,0.394,0.303,0.727,0.322c0.104-0.132,0.173-0.709-0.083-0.724
	C53.309,34.511,52.84,34.084,52.828,34.603z M53.713,34.439c0.107,0,0.213,0,0.323,0C54.098,34.131,53.649,34.131,53.713,34.439z
	 M69.648,34.843c0.507,0.002,0.113,0.905,0.643,0.885c0.147-0.675,0.17-1.294-0.562-1.448C69.615,34.383,69.648,34.63,69.648,34.843
	z M52.749,34.603c0.022-0.21-0.113-0.263-0.321-0.242C52.345,34.63,52.538,34.625,52.749,34.603z M59.508,35.489
	c0.107,0,0.214,0,0.322,0c0.061-0.448,0.338-0.684,0.482-1.049c-0.103-0.005-0.108-0.1-0.243-0.079
	C59.916,34.771,59.692,35.108,59.508,35.489z M59.344,35.004c0.573,0.041,0.381-0.521-0.078-0.481
	C59.06,34.718,59.437,34.694,59.344,35.004z M54.036,35.326c0-0.215,0-0.428,0-0.643C53.614,34.641,53.614,35.366,54.036,35.326z
	 M47.677,35.649c0.25,0.06,0.155-0.221,0.405-0.16c-0.127,0.12-0.118,0.458,0.158,0.402c0-0.214,0-0.43,0-0.643
	C47.873,35.006,47.401,35.134,47.677,35.649z M53.554,35.489c0.108-0.104,0.123-0.396-0.083-0.403
	C53.363,35.188,53.35,35.48,53.554,35.489z M48.482,35.729c0.107,0,0.215,0,0.32,0c0.035-0.301-0.061-0.47-0.32-0.481
	C48.482,35.409,48.482,35.567,48.482,35.729z M39.792,35.971c0.153,0.019,0.18-0.091,0.323-0.08
	c0.015-0.177-0.066-0.256-0.242-0.242C39.847,35.756,39.758,35.802,39.792,35.971z M37.7,36.053c0.081,0,0.161,0,0.242,0
	c-0.019-0.146,0.078-0.404-0.162-0.324C37.753,35.837,37.667,35.885,37.7,36.053z M55.809,36.053c0-0.11,0-0.218,0-0.324
	c-0.085,0-0.164,0-0.245,0C55.543,35.939,55.538,36.132,55.809,36.053z M67.394,35.891c-0.015-0.12-0.196-0.074-0.322-0.08
	C66.899,36.105,67.48,36.172,67.394,35.891z M51.22,36.372c0.023-0.189,0.279-0.148,0.239-0.401c-0.077,0-0.161,0-0.239,0
	C51.239,36.206,50.896,36.271,51.22,36.372z M38.181,36.293c0.014,0.255,0.184,0.354,0.485,0.321
	c-0.085-0.301,0.199-0.229,0.161-0.482C38.459,36.033,38.51,36.354,38.181,36.293z M39.873,37.097
	c0.382-0.075,0.528-0.686,0.242-0.965c-0.389,0.146-0.158,0.255-0.484,0C39.585,36.692,40.117,36.512,39.873,37.097z M21.043,36.776
	c0.229-0.039,0.23-0.306,0.321-0.483c-0.078,0-0.161,0-0.241,0C21.125,36.483,20.985,36.53,21.043,36.776z M53.872,36.535
	c0,0.107,0,0.212,0,0.322c0.319-0.104,0.196,0.233,0.404,0.24c0.106-0.128,0.175-0.708-0.079-0.725
	C54.033,36.745,54.188,36.778,53.872,36.535z M38.745,36.776c0.214,0.023,0.268-0.111,0.246-0.323c-0.084,0-0.164,0-0.246,0
	C38.745,36.561,38.745,36.667,38.745,36.776z M49.047,37.177c0.181-0.034,0.03-0.396,0.081-0.563
	c-0.157-0.109-0.46-0.075-0.646-0.161C48.417,36.948,48.859,36.934,49.047,37.177z M37.295,37.097c0.119-0.107,0.119-0.455,0-0.562
	c-0.077,0-0.159,0-0.239,0C36.846,36.768,37.116,37.011,37.295,37.097z M37.7,37.097c0.069-0.094,0.107-0.213,0.081-0.402
	C37.486,36.617,37.46,37.09,37.7,37.097z M24.584,37.822c0.287,0.016,0.418-0.118,0.399-0.402c-0.394,0.022-0.467-0.284-0.721-0.402
	C24.001,37.376,24.613,37.438,24.584,37.822z M36.413,37.74c-0.126-0.007-0.061-0.205-0.242-0.159
	c-0.125,0.116-0.072,0.411-0.082,0.644c0.527-0.199,0.709-0.743,0.967-1.207c-0.303,0.225-1.066,0.225-1.367,0
	C35.576,37.613,36.58,37.091,36.413,37.74z M22.491,37.499c0.34,0.063,0.276-0.429,0-0.402
	C22.491,37.232,22.491,37.363,22.491,37.499z M62.406,37.499c0.228,0.016,0.437,0.01,0.399-0.241
	c-0.093-0.067-0.214-0.107-0.399-0.081C62.406,37.284,62.406,37.391,62.406,37.499z M54.438,37.822c0.292,0.011,0.292-0.418,0-0.402
	C54.438,37.552,54.438,37.687,54.438,37.822z M21.686,38.062c0-0.106,0-0.215,0-0.323c-0.08,0-0.159,0-0.241,0
	C21.422,37.952,21.418,38.144,21.686,38.062z M51.382,38.062c0.309,0.063,0.309-0.385,0-0.323
	C51.382,37.847,51.382,37.956,51.382,38.062z M20.801,38.545c-0.035-0.151,0.109-0.483-0.161-0.401
	C20.512,38.263,20.524,38.603,20.801,38.545z M35.285,38.545c0.022-0.261-0.093-0.389-0.322-0.401
	C34.949,38.402,35.097,38.49,35.285,38.545z M50.657,38.788c0.145-0.101,0.159-0.747-0.163-0.645
	C50.562,38.343,50.337,38.834,50.657,38.788z M51.54,39.27c0.266-0.249,0.437-0.506,0.482-1.126
	C51.563,38.398,51.675,38.745,51.54,39.27z M67.634,38.628c0.167-0.049,0.102-0.522-0.08-0.484
	C67.488,38.201,67.338,38.698,67.634,38.628z M54.761,38.788c-0.049-0.167,0.129-0.561-0.164-0.484
	C54.542,38.495,54.413,38.815,54.761,38.788z M55.162,38.708c0.208,0.021,0.347-0.03,0.321-0.242
	c-0.111,0.004-0.178-0.038-0.239-0.081C55.216,38.491,55.127,38.538,55.162,38.708z M49.208,38.948c0.31,0.063,0.31-0.388,0-0.32
	C49.208,38.734,49.208,38.84,49.208,38.948z M51.138,39.109c-0.049-0.167,0.13-0.558-0.162-0.481
	C50.853,38.749,50.833,39.179,51.138,39.109z M34.078,39.27c0.112-0.108,0.152-0.56-0.081-0.562
	C33.889,38.815,33.845,39.268,34.078,39.27z M39.873,38.788c-0.082,0.241,0.176,0.142,0.321,0.16c0-0.083,0-0.16,0-0.241
	C40.054,38.701,39.944,38.724,39.873,38.788z M39.067,39.27c0.006-0.3-0.239-0.35-0.484-0.404
	C38.575,39.173,38.794,39.247,39.067,39.27z M50.495,39.511c0.229-0.262,0.281-0.495-0.081-0.645
	C50.344,38.948,50.192,39.565,50.495,39.511z M35.448,39.109c-0.017-0.119-0.196-0.074-0.323-0.08
	C34.953,39.324,35.535,39.392,35.448,39.109z M33.678,39.913c0,0.055,0,0.106,0,0.162c0.354,0.035,0.936-0.474,0.482-0.724
	c-0.193-0.032,0.043,0.364-0.242,0.24c-0.26-0.006-0.056-0.48-0.402-0.402c0,0.214,0.03,0.459-0.081,0.564
	c0.202,0.104,0.332-0.236,0.402,0C33.74,39.761,33.645,39.778,33.678,39.913z M38.02,39.834c0.072-0.082,0.226-0.698-0.078-0.646
	C37.792,39.268,37.807,39.856,38.02,39.834z M20.722,39.672c0.106-0.102,0.125-0.392-0.081-0.402
	C20.529,39.373,20.514,39.665,20.722,39.672z M35.125,39.352c-0.106,0-0.216,0-0.322,0C34.739,39.659,35.188,39.659,35.125,39.352z
	 M38.906,39.672c0.107,0,0.214,0,0.322,0c0-0.106,0-0.214,0-0.32C38.977,39.314,38.87,39.421,38.906,39.672z M39.471,39.995
	c0.044-0.197,0.312-0.172,0.24-0.484c-0.248,0.06-0.099-0.278-0.402-0.159C39.335,39.594,39.219,39.977,39.471,39.995z
	 M54.52,39.834c-0.115-0.183-0.072-0.52-0.404-0.483C54.09,39.671,54.229,39.829,54.52,39.834z M51.138,39.834
	c0.014-0.202,0.014-0.391-0.162-0.404C50.853,39.549,50.9,39.849,51.138,39.834z M53.471,40.557
	c0.021-0.143-0.078-0.403,0.163-0.323c-0.34-0.327,0.087-0.452,0.239-0.723C53.475,39.241,52.718,40.395,53.471,40.557z
	 M38.344,39.753c0.109,0.025,0.155,0.114,0.322,0.082c0.022-0.185-0.019-0.304-0.161-0.324
	C38.486,39.625,38.372,39.648,38.344,39.753z M50.657,39.995c0.339,0.062,0.273-0.432,0-0.403
	C50.657,39.727,50.657,39.858,50.657,39.995z M23.616,40.557c0.107-0.143-0.101-0.435,0.405-0.323c0-0.133,0-0.266,0-0.399
	c-0.153-0.145-0.533-0.062-0.807-0.082C23.196,40.172,23.208,40.563,23.616,40.557z M40.756,40.637
	c0.021-0.111,0.176-0.09,0.244-0.16c-0.105-0.245-0.08-0.619-0.324-0.724C40.553,39.937,40.667,40.418,40.756,40.637z
	 M36.413,40.234c0.252,0.039,0.358-0.068,0.319-0.321C36.529,39.924,36.424,40.031,36.413,40.234z M37.137,40.717
	c0.256-0.215,0.235-0.395,0.159-0.804c-0.131,0-0.266,0-0.399,0C36.999,40.158,36.877,40.629,37.137,40.717z M38.583,39.995
	c0,0.187,0,0.376,0,0.562c0.262-0.1,0.063,0.262,0.323,0.16c0.176-0.32-0.055-0.551,0.161-0.804
	C38.87,39.902,38.677,39.902,38.583,39.995z M49.529,40.637c0.37,0.185,0.474-0.577,0.162-0.562
	C49.581,40.291,49.406,40.386,49.529,40.637z M40.194,40.234c0.035,0.18,0.142,0.287,0.321,0.323
	C40.591,40.248,40.385,40.042,40.194,40.234z M39.147,40.557c-0.02,0.184,0.021,0.302,0.161,0.322
	c0.007-0.209,0.345-0.084,0.245-0.402C39.365,40.451,39.241,40.489,39.147,40.557z M33.678,41.201
	c0.193,0.214,0.662,0.023,0.563-0.322C33.982,40.917,33.75,40.979,33.678,41.201z M25.308,41.281c0-0.107,0-0.213,0-0.321
	c-0.081,0-0.161,0-0.244,0C25.044,41.172,25.098,41.306,25.308,41.281z M23.215,41.442c0.109-0.102,0.125-0.395-0.08-0.402
	C23.027,41.143,23.01,41.434,23.215,41.442z M52.103,41.442c0.326,0.079,0.326-0.48,0-0.402
	C52.103,41.173,52.103,41.308,52.103,41.442z M53.956,41.281c-0.005,0.112,0.037,0.177,0.081,0.242
	c0.204-0.01,0.309-0.118,0.321-0.321C54.169,41.175,54.048,41.215,53.956,41.281z M54.921,41.281
	c-0.015-0.117-0.193-0.072-0.325-0.08C54.428,41.496,55.011,41.563,54.921,41.281z M21.527,41.845
	c0.219,0.058,0.161-0.162,0.321-0.162c0.021-0.262-0.096-0.386-0.321-0.403C21.412,41.389,21.412,41.738,21.527,41.845z
	 M23.051,41.845c0.109,0,0.217,0,0.322,0c-0.006-0.206-0.113-0.313-0.322-0.323C23.051,41.631,23.051,41.738,23.051,41.845z
	 M23.86,42.005c0-0.107,0-0.215,0-0.321c-0.083,0-0.161,0-0.244,0C23.596,41.895,23.59,42.085,23.86,42.005z M38.906,42.167
	c0.401,0.025,0.623-0.13,0.805-0.321C39.482,41.547,38.917,41.771,38.906,42.167z M33.918,41.924
	c0.152,0.144,0.532,0.06,0.804,0.081C34.677,41.611,33.99,41.748,33.918,41.924z M26.111,42.409
	c0.142-0.074,0.177-0.251,0.163-0.484c-0.081,0-0.163,0-0.241,0C25.967,41.984,25.817,42.482,26.111,42.409z M23.373,43.211
	c0.25,0.125,0.25-0.524,0-0.399C23.373,42.946,23.373,43.079,23.373,43.211z M21.445,43.613c0.296,0.08,0.319-0.393,0.082-0.402
	C21.457,43.307,21.42,43.429,21.445,43.613z M22.413,43.613c0-0.134,0-0.268,0-0.402c-0.083,0-0.166,0-0.243,0
	C22.153,43.444,22.159,43.652,22.413,43.613z M22.812,43.613c-0.038-0.149,0.11-0.483-0.16-0.402
	C22.53,43.329,22.574,43.632,22.812,43.613z M21.767,44.341c0.416,0.023,0.379-0.563,0-0.563
	C21.767,43.964,21.767,44.149,21.767,44.341z M23.699,45.224c0.376,0.059,0.353-0.291,0.4-0.563
	C23.761,44.633,23.501,44.967,23.699,45.224z M21.606,44.904c0.129,0.162,0.117,0.472,0.402,0.48c0.068-0.092,0.105-0.213,0.081-0.4
	C21.888,44.961,21.821,44.68,21.606,44.904z M22.33,45.79c0.297,0.074,0.32-0.398,0.083-0.406
	C22.342,45.479,22.302,45.602,22.33,45.79z M20.478,46.352c0.229,0.014,0.158-0.273,0.485-0.161c0-0.108,0-0.214,0-0.322
	c-0.446,0.091-0.126,0.288-0.485,0C20.368,45.972,20.368,46.249,20.478,46.352z M23.938,46.592c0.036,0.126,0.254,0.071,0.161,0.324
	c0.258,0.016,0.196-0.289,0.322-0.405c-0.21,0.025-0.064-0.31-0.322-0.24C24.099,46.432,23.881,46.371,23.938,46.592z
	 M20.962,48.685c0-0.108,0-0.216,0-0.321c-0.081,0-0.161,0-0.241,0C20.701,48.574,20.691,48.765,20.962,48.685z M22.33,49.571
	c0.157-0.062,0.121-0.596-0.083-0.563C22.183,49.074,22.028,49.637,22.33,49.571z M21.123,49.571
	c0.384,0.136,0.446-0.465,0.081-0.402C21.235,49.362,21.057,49.341,21.123,49.571z M20.722,50.294
	c0.131,0.161,0.214,0.373,0.481,0.403c-0.087-0.316,0.188-0.99-0.16-1.045C21.115,50.046,20.704,49.957,20.722,50.294z
	 M24.664,50.456c0.128-0.121,0.118-0.458-0.163-0.404C24.491,50.252,24.489,50.442,24.664,50.456z M21.527,50.537
	c0-0.108,0-0.216,0-0.322C21.215,50.15,21.215,50.598,21.527,50.537z M22.088,51.179c-0.035-0.152,0.109-0.484-0.161-0.403
	C21.882,50.969,21.806,51.152,22.088,51.179z M29.01,51.743c0.179-0.033,0.077-0.441-0.082-0.403
	C28.865,51.395,28.719,51.82,29.01,51.743z M21.606,51.743c0.026-0.109,0.115-0.154,0.08-0.322c-0.08,0-0.159,0-0.241,0
	C21.422,51.606,21.462,51.722,21.606,51.743z M22.247,51.904c-0.033-0.152,0.112-0.485-0.159-0.403
	C21.961,51.623,21.971,51.959,22.247,51.904z M29.17,52.628c0.323,0.079,0.323-0.482,0-0.403
	C29.17,52.359,29.17,52.492,29.17,52.628z M23.051,53.352c0.114-0.104,0.083-0.349,0.084-0.562c-0.084,0-0.16,0-0.241,0
	C22.907,53.015,22.825,53.341,23.051,53.352z M24.099,53.192c0.164,0,0.322,0,0.485,0c-0.094,0.094-0.094,0.283-0.083,0.482
	c0.475-0.058,0.058-0.516,0.244-0.806c-0.331,0.067-0.28,0.012-0.646,0C24.099,52.977,24.099,53.084,24.099,53.192z M48.482,53.352
	c0.107,0,0.215,0,0.32,0c-0.033-0.152,0.113-0.484-0.157-0.402C48.704,53.196,48.364,53.049,48.482,53.352z M29.01,54.075
	c0.11-0.101,0.124-0.393-0.082-0.4C28.821,53.776,28.804,54.068,29.01,54.075z M21.043,54.961c0.211,0.023,0.208-0.168,0.243-0.322
	c-0.103-0.005-0.113-0.104-0.243-0.079C21.043,54.693,21.043,54.827,21.043,54.961z M48.646,55.525
	c0.061-0.289,0.157-0.534-0.322-0.564C48.314,55.264,48.26,55.612,48.646,55.525z M48.24,55.525c0.015-0.2,0.017-0.392-0.158-0.402
	C47.955,55.243,47.963,55.582,48.24,55.525z M40.115,56.25c0.012-0.2,0.015-0.39-0.162-0.403
	C39.825,55.966,39.837,56.307,40.115,56.25z M48.966,56.812c0-0.106,0-0.215,0-0.32c-0.08,0-0.164,0-0.242,0
	C48.7,56.7,48.753,56.837,48.966,56.812z M41.642,57.135c0.111-0.104,0.126-0.394-0.08-0.402
	C41.452,56.835,41.438,57.126,41.642,57.135z M41.319,58.1c0.135,0,0.271,0,0.405,0c0-0.107,0-0.215,0-0.322
	C41.467,57.763,41.374,57.913,41.319,58.1z M31.826,60.757c-0.036-0.153,0.106-0.486-0.161-0.406
	C31.537,60.474,31.548,60.812,31.826,60.757z M34.078,66.872c0.07-0.094,0.109-0.216,0.082-0.403
	C33.864,66.391,33.84,66.862,34.078,66.872z M36.732,67.837c0.107,0,0.218,0,0.324,0C37.121,67.528,36.673,67.525,36.732,67.837z
	 M34.722,67.999c0-0.108,0-0.217,0-0.323C34.411,67.612,34.411,68.062,34.722,67.999z M35.285,68.318
	c0.123-0.122,0.13-0.354,0.163-0.562C35.077,67.573,34.973,68.337,35.285,68.318z M36.572,68.318
	c0.028-0.107,0.113-0.154,0.08-0.319c-0.08,0-0.159,0-0.239,0C36.391,68.181,36.432,68.301,36.572,68.318z M37.137,68.723
	c0.017,0.571,0.436,0.746,0.32,1.448c0.415-0.396,0.095-1.006,0.082-1.531C37.352,68.616,37.23,68.654,37.137,68.723z
	 M35.847,69.446c0.237,0.132,0.305-0.152,0.646,0c0-0.107,0-0.214,0-0.32c-0.328,0.11-0.256-0.176-0.483-0.163
	C36.098,69.262,35.811,69.192,35.847,69.446z M35.045,69.206c-0.073,0.079-0.226,0.696,0.08,0.644
	C35.274,69.771,35.262,69.183,35.045,69.206z M36.896,70.251c-0.08,0-0.164,0-0.245,0c0.027-0.109,0.116-0.154,0.081-0.322
	c-0.681,0.071-0.171,1.146-0.16,1.53c0.31,0.039,0.254-0.286,0.404-0.404c0.283,0.295-0.321,0.354-0.08,0.725
	c0.284,0.016,0.156-0.379,0.483-0.321c-0.108-0.431,0.111-0.529,0.239-0.725c-0.23-0.253-0.479-0.489-0.401-1.048
	c-0.082,0-0.162,0-0.242,0C36.924,69.854,37.076,70.216,36.896,70.251z M36.413,71.941c0.064-0.059,0.214-0.558-0.082-0.482
	C36.221,71.56,36.192,71.938,36.413,71.941z"/>
</svg>
